HIERARCHY
ROOT root
{
	OFFSET 0.000000 0.000000 0.000000
	CHANNELS 6 Xposition Yposition Zposition Zrotation Yrotation Xrotation
	JOINT lhip
	{
		OFFSET 0.058581 -0.082280 -0.017664
		CHANNELS 3 Zrotation Yrotation Xrotation
		JOINT lknee
		{
			OFFSET 0.043451 -0.386469 0.008037
			CHANNELS 3 Zrotation Yrotation Xrotation
			JOINT lankle
			{
				OFFSET -0.014790 -0.426874 -0.037428
				CHANNELS 3 Zrotation Yrotation Xrotation
				JOINT ltoe
				{
					OFFSET 0.041054 -0.060286 0.122042
					CHANNELS 3 Zrotation Yrotation Xrotation
					End Site
					{
						OFFSET 0.000000 0.000000 0.000000
					}
				}
			}
		}
	}
	JOINT rhip
	{
		OFFSET -0.060310 -0.090513 -0.013543
		CHANNELS 3 Zrotation Yrotation Xrotation
		JOINT rknee
		{
			OFFSET -0.043257 -0.383688 -0.004843
			CHANNELS 3 Zrotation Yrotation Xrotation
			JOINT rankle
			{
				OFFSET 0.019056 -0.420046 -0.034562
				CHANNELS 3 Zrotation Yrotation Xrotation
				JOINT rtoe
				{
					OFFSET -0.034840 -0.062106 0.130323
					CHANNELS 3 Zrotation Yrotation Xrotation
					End Site
					{
						OFFSET 0.000000 0.000000 0.000000
					}
				}
			}
		}
	}
	JOINT lowerback
	{
		OFFSET 0.004439 0.124404 -0.038385
		CHANNELS 3 Zrotation Yrotation Xrotation
		JOINT upperback
		{
			OFFSET 0.004488 0.137956 0.026820
			CHANNELS 3 Zrotation Yrotation Xrotation
			JOINT chest
			{
				OFFSET -0.002265 0.056032 0.002855
				CHANNELS 3 Zrotation Yrotation Xrotation
				JOINT lowerneck
				{
					OFFSET -0.013390 0.211636 -0.033468
					CHANNELS 3 Zrotation Yrotation Xrotation
					JOINT upperneck
					{
						OFFSET 0.010113 0.088937 0.050410
						CHANNELS 3 Zrotation Yrotation Xrotation
						End Site
						{
							OFFSET 0.000000 0.000000 0.000000
						}
					}
				}
				JOINT lclavicle
				{
					OFFSET 0.071702 0.114000 -0.018898
					CHANNELS 3 Zrotation Yrotation Xrotation
					JOINT lshoulder
					{
						OFFSET 0.122921 0.045205 -0.019046
						CHANNELS 3 Zrotation Yrotation Xrotation
						JOINT lelbow
						{
							OFFSET 0.255332 -0.015649 -0.022946
							CHANNELS 3 Zrotation Yrotation Xrotation
							JOINT lwrist
							{
								OFFSET 0.265709 0.012698 -0.007375
								CHANNELS 3 Zrotation Yrotation Xrotation
								End Site
								{
									OFFSET 0.000000 0.000000 0.000000
								}
							}
						}
					}
				}
				JOINT rclavicle
				{
					OFFSET -0.082954 0.112472 -0.023707
					CHANNELS 3 Zrotation Yrotation Xrotation
					JOINT rshoulder
					{
						OFFSET -0.113228 0.046853 -0.008472
						CHANNELS 3 Zrotation Yrotation Xrotation
						JOINT relbow
						{
							OFFSET -0.260127 -0.014369 -0.031269
							CHANNELS 3 Zrotation Yrotation Xrotation
							JOINT rwrist
							{
								OFFSET -0.269108 0.006794 -0.006027
								CHANNELS 3 Zrotation Yrotation Xrotation
								End Site
								{
									OFFSET 0.000000 0.000000 0.000000
								}
							}
						}
					}
				}
			}
		}
	}
}
MOTION
Frames: 15
Frame Time: 0.033333
0.180672 0.050910 0.926265 84.950021 7.326328 85.446978 9.517166 0.623893 -27.592748 -6.348169 16.937930 47.662510 9.187068 19.074419 -29.145088 0.000000 -0.000000 0.000000 -8.854687 -3.316463 -16.424984 1.801849 -8.492020 84.417889 4.500078 -7.911690 -22.607602 0.000000 -0.000000 0.000000 -2.225073 8.410556 12.814463 -0.432643 6.986632 -4.484889 -1.068885 4.742932 -0.506547 5.998225 -11.380355 -3.714155 2.290278 -7.736960 9.910994 -19.754318 5.114598 -2.378739 -37.888155 1.879377 3.137714 137.419106 -74.204055 -120.900170 15.084173 -11.612235 -18.013376 16.961460 12.537295 0.168163 30.196537 19.153196 5.056901 -131.277069 75.884206 -110.985657 -8.231559 11.289594 0.247571 
0.210049 0.052023 0.952244 92.518522 10.740729 81.754757 9.613345 1.329685 -20.182196 -8.045102 8.552954 43.776967 8.606906 18.533717 -28.573355 0.000000 -0.000000 0.000000 -9.734091 -4.471937 -26.430214 1.820709 -10.157577 90.661861 3.465984 -6.878488 -24.476709 0.000000 -0.000000 0.000000 -0.764991 5.026021 14.877567 0.702349 6.717796 -3.695410 -0.592037 3.795927 0.141446 5.896168 -11.658814 -0.163042 3.353409 -9.486485 8.223631 -19.466590 4.313083 -2.283045 -34.942036 0.382161 2.273944 132.397215 -74.502156 -116.722198 11.507438 -11.573951 -16.976121 18.026977 10.557905 0.885456 28.344086 13.662232 3.232810 -117.350317 79.026155 -98.533296 -8.555135 10.123271 1.392905 
0.239260 0.050611 0.980152 102.147329 16.141919 76.764561 12.473015 1.525663 -11.255616 -9.799571 -1.681910 40.519867 6.729065 18.049199 -28.066006 0.000000 -0.000000 0.000000 -12.378466 -4.847303 -33.725862 5.088142 -11.034118 96.621535 3.748823 -4.725568 -26.253508 0.000000 -0.000000 0.000000 0.899443 0.681443 18.923692 2.864304 5.618627 -1.864373 0.430322 1.992420 0.837539 6.216843 -11.518864 1.922482 4.244901 -10.988633 6.499225 -19.819643 1.772302 -2.557969 -32.339835 -4.107611 1.651164 124.153396 -74.519861 -109.484924 11.108452 -11.951383 -16.690233 19.363157 8.896618 1.124667 25.637149 7.596149 2.159872 -84.452621 81.856382 -67.879310 -10.808228 9.248246 1.008935 
0.265703 0.044619 1.009213 113.842712 23.583325 72.661602 18.743127 0.450458 -4.574207 -11.594888 -10.306865 39.404696 2.883876 17.114150 -27.602645 0.000000 -0.000000 0.000000 -18.651066 -4.852649 -38.085965 3.961699 -12.229515 104.576367 4.572304 -4.159609 -28.219308 0.000000 -0.000000 0.000000 1.855362 -4.225786 24.598819 6.128756 3.316920 -0.329805 1.977647 -0.135447 1.206594 7.299270 -11.261847 3.263447 4.948754 -12.450915 5.339973 -20.418658 -2.628837 -2.065170 -29.279201 -10.652150 1.090563 110.536771 -73.536909 -97.786609 13.177943 -11.672333 -16.615296 21.957750 7.686702 1.779201 22.136286 2.322960 1.951383 -40.477571 79.649203 -25.944585 -12.025367 9.666260 3.214764 
0.293112 0.032166 1.035802 125.158577 31.400268 70.723083 27.508301 1.965996 -3.872058 -13.759578 -12.047342 42.141856 -1.816069 15.966095 -25.573492 0.000000 -0.000000 0.000000 -26.680891 -5.944038 -42.389258 3.978808 -10.566234 111.346773 4.740052 -4.080450 -31.561480 0.000000 -0.000000 0.000000 1.481215 -7.667694 30.191090 10.044275 0.557157 0.957633 3.883072 -2.096606 0.757034 8.483509 -10.576297 4.337768 6.448982 -13.638558 5.733328 -19.938218 -7.940742 -0.888023 -24.967998 -16.682351 -0.602577 96.145591 -72.225814 -86.386448 15.029399 -10.740050 -19.491748 24.734716 7.047599 2.855912 19.755060 -1.934065 2.133189 -18.768314 73.798288 -5.035712 -8.580826 8.095593 7.149489 
0.323095 0.015696 1.058528 135.452508 39.890203 70.837477 37.208247 7.671950 -5.567637 -12.636690 -9.707481 41.218211 -5.290511 15.727914 -23.890780 0.000000 -0.000000 0.000000 -34.516416 -9.109017 -46.356746 2.449201 -7.281310 109.869903 4.232375 -9.344518 -33.431892 0.000000 -0.000000 0.000000 1.826738 -10.769982 35.959097 12.935754 -1.473612 1.230083 6.105997 -3.704677 -0.151290 8.823255 -11.031093 4.846322 8.647227 -13.249385 7.769568 -18.606448 -12.563204 0.809922 -19.586216 -21.563809 -4.408202 83.147035 -71.359867 -75.688660 17.401709 -9.356577 -23.833368 26.458306 7.245846 4.730431 18.960799 -5.477766 3.230300 -7.084925 67.193730 6.009969 -6.773638 7.213583 9.749889 
0.350946 0.003970 1.071386 145.705977 47.608672 74.254320 44.567130 15.837559 -7.341938 -9.347293 -3.261040 34.057664 -7.058810 15.662923 -24.146513 0.000000 -0.000000 0.000000 -43.308169 -13.692164 -45.625389 0.334656 -8.311937 91.205596 4.587340 -12.067674 -35.589420 0.000000 -0.000000 0.000000 3.941256 -13.958516 39.653878 14.287534 -3.728939 1.486088 7.818511 -4.714661 -1.687950 8.984321 -11.462932 4.982067 10.556213 -12.775111 10.597973 -17.577395 -16.176985 2.105196 -14.490704 -25.501847 -8.836989 70.389471 -70.490879 -62.730886 18.548101 -10.225051 -23.051522 27.826251 7.837454 7.510611 18.238705 -7.297702 3.723397 2.167223 59.541344 14.222716 -7.002148 8.213531 12.400149 
0.369367 -0.005406 1.076305 153.502581 53.943579 79.092680 48.386153 23.925332 -8.487848 -6.988498 3.351427 24.575739 -6.170174 15.831134 -24.989006 0.000000 -0.000000 0.000000 -46.922258 -18.561774 -39.353064 5.331593 -8.708853 53.189824 5.227895 -11.870687 -35.634783 0.000000 -0.000000 0.000000 7.478836 -16.296735 42.749855 14.441704 -4.357649 -1.020485 9.230878 -5.027255 -1.921611 7.588717 -12.819332 3.117313 12.446369 -12.292673 14.312827 -16.047783 -18.000000 1.408145 -12.681810 -30.503289 -12.039762 56.134165 -69.496761 -45.561083 18.855187 -10.573324 -20.881983 27.476562 7.978799 9.426034 17.982305 -7.454603 3.308951 8.448568 52.595163 20.673483 -3.013929 6.559067 13.120527 
0.391262 -0.019114 1.077315 156.344975 57.086873 83.920835 49.295260 28.300363 -10.112539 -4.411980 6.689796 17.315831 -5.572921 14.266361 -24.980660 0.000000 -0.000000 0.000000 -46.695257 -20.750666 -37.803852 2.617769 -5.560105 16.648762 7.896734 -11.145747 -33.322671 0.000000 -0.000000 0.000000 8.847985 -14.243706 41.441371 14.089062 -3.402471 -4.127315 10.506933 -5.014703 -1.177204 6.924346 -13.296576 2.306612 14.040668 -13.330287 15.745406 -14.379120 -17.737020 1.277104 -12.670387 -36.664284 -13.166892 45.454408 -69.207321 -35.209465 20.590986 -9.582933 -24.764917 27.251284 6.600933 10.512652 18.718165 -7.094099 4.599573 9.579161 46.846850 22.502396 -3.995300 6.099568 11.523411 
0.421020 -0.033580 1.083132 156.781152 59.965645 84.551621 53.204644 25.704423 -9.009241 -2.937734 5.061046 13.756098 -5.444878 16.095284 -23.733653 0.000000 -0.000000 0.000000 -44.337047 -22.852200 -46.253797 2.665923 -7.504681 22.619149 7.300874 -11.418827 -33.859304 0.000000 -0.000000 0.000000 8.004958 -12.779013 41.587107 13.243886 -1.001864 -4.838393 10.216033 -4.214644 -1.506484 6.561562 -10.975455 2.867908 15.594338 -15.730185 14.326384 -12.602664 -18.212637 1.495534 -10.291006 -37.959119 -12.648786 42.521859 -71.092394 -34.177135 21.046415 -8.429189 -28.811898 28.255259 7.022080 12.386131 21.425470 -7.287740 4.458554 7.154351 42.660243 20.107319 -6.438925 5.909150 9.528043 
0.455974 -0.043149 1.088914 162.104272 62.280458 84.403841 56.923853 23.328128 -8.661173 -1.993680 5.148540 12.585112 -5.418312 17.568452 -22.173661 0.000000 -0.000000 0.000000 -42.429470 -25.582298 -53.489120 3.145857 -12.848022 54.220473 5.293418 -10.401785 -36.619461 0.000000 -0.000000 0.000000 6.212992 -13.329477 44.811246 12.466990 -0.088089 -3.490960 8.808826 -2.940767 -2.569186 6.591078 -7.498997 2.574363 14.839629 -19.689174 14.137344 -11.024507 -20.447036 0.406643 -7.020830 -35.694646 -10.789003 40.678145 -73.302145 -31.898732 20.832319 -8.669992 -28.330753 30.925748 9.257942 12.725815 23.262691 -8.184525 3.675628 3.444706 40.699042 14.623889 -6.937225 5.496854 8.890485 
0.490938 -0.045453 1.090521 177.871817 61.809303 92.169530 56.350630 22.217301 -12.436209 -2.380860 -1.081691 12.783067 -4.938572 15.969304 -20.328736 0.000000 -0.000000 0.000000 -44.550846 -28.463980 -54.062034 -0.602592 -15.377466 88.296683 5.310173 -6.493245 -39.174992 0.000000 -0.000000 0.000000 5.636781 -13.868936 46.593020 12.808298 -0.504253 -2.802867 7.207010 -3.210725 -2.923231 7.207953 -6.542431 -0.142680 11.839867 -25.324509 17.430406 -10.607010 -22.658746 -0.958175 -8.278806 -37.045345 -9.469817 31.835611 -74.194159 -20.371142 18.641840 -9.819111 -26.384507 31.725462 9.838159 10.051301 25.392989 -9.762320 2.057110 -1.197334 40.115719 9.001521 -8.042472 5.679788 9.141716 
0.515618 -0.043958 1.089348 -170.478421 59.915592 96.456909 54.120653 21.566631 -15.524191 -2.704223 -6.430855 14.489071 -2.734022 15.339113 -19.580347 0.000000 -0.000000 0.000000 -43.127864 -28.231175 -52.796652 -2.519485 -17.604405 115.875634 2.970321 -3.731520 -39.748785 0.000000 -0.000000 0.000000 6.074516 -14.873023 49.339397 11.729470 0.210816 -4.468043 5.498391 -3.825553 -2.289181 6.891551 -8.387164 -1.740675 10.023915 -28.614271 19.677510 -12.338774 -22.912370 -2.112094 -12.445593 -37.041300 -6.530160 29.087802 -77.355106 -16.224568 15.384259 -9.681491 -25.700665 30.846483 10.100256 7.518113 27.949296 -10.733454 -0.839547 -5.772466 40.783929 2.740904 -10.057444 5.623702 9.223825 
0.541425 -0.041576 1.076800 -167.578568 54.626583 96.413399 50.997585 19.810558 -17.495315 -4.726633 -5.030711 18.474346 0.377372 14.493380 -20.917071 0.000000 -0.000000 0.000000 -37.551034 -27.552570 -55.925541 -4.497215 -22.974933 137.153933 4.597380 2.018960 -39.252251 0.000000 -0.000000 0.000000 3.597912 -12.636498 46.920365 11.055353 0.049711 -2.922979 4.142039 -3.507719 -3.470254 7.259524 -9.836502 -0.202503 9.630517 -30.941759 17.663259 -15.505373 -21.775484 -1.499394 -16.173056 -34.552709 -1.907504 39.192084 -81.289460 -28.369541 13.066577 -10.263157 -25.996841 31.407336 9.126530 6.434910 28.133472 -11.663520 -2.284857 -11.761109 44.375823 -6.412980 -12.682133 5.874602 7.308377 
0.557158 -0.037112 1.063271 -165.187523 49.225613 95.242801 48.435989 16.333848 -18.884919 -7.523981 -2.118151 23.536282 0.578305 13.459696 -22.959484 0.000000 -0.000000 0.000000 -30.373796 -24.487312 -56.345933 -7.153741 -27.351411 144.676574 4.840124 7.881768 -37.537072 0.000000 -0.000000 0.000000 1.383279 -11.155620 46.638486 10.691787 0.075664 -2.468554 3.417115 -2.751638 -4.318492 7.456991 -10.680397 0.478932 9.368804 -33.454209 15.455022 -17.683118 -19.233820 -1.660240 -21.815806 -31.080733 3.237522 59.394069 -83.339533 -47.927299 10.485156 -11.789922 -24.757964 30.973341 8.132893 5.116919 28.015627 -12.070809 -3.470145 -19.159900 48.972190 -13.391453 -14.087572 5.250119 3.071994 
